<?xml version="1.0" encoding="UTF-8" standalone="no"?>
<svg
   width="64"
   height="64"
   viewBox="0 0 64 64"
   fill="none"
   version="1.1"
   id="svg2"
   xmlns="http://www.w3.org/2000/svg"
   xmlns:svg="http://www.w3.org/2000/svg">
  <defs
     id="defs2" />
  <path
     style="fill:none;stroke:#ffffff;stroke-width:4.587;stroke-linecap:round;stroke-linejoin:round;stroke-miterlimit:0;stroke-dasharray:none;stroke-opacity:1;paint-order:fill markers stroke"
     d="m 32,12.24291 c 0,7.481799 0,14.963598 0,22.445397"
     id="path1" />
  <path
     style="fill:none;stroke:#ffffff;stroke-width:4.587;stroke-linecap:round;stroke-linejoin:round;stroke-miterlimit:0;stroke-dasharray:none;stroke-opacity:1;paint-order:fill markers stroke"
     d="m 20.777301,23.465609 c 7.481799,0 14.963598,0 22.445397,0"
     id="path1-6" />
  <path
     style="display:inline;mix-blend-mode:normal;fill:none;fill-opacity:1;stroke:#ffffff;stroke-width:6.19964;stroke-linecap:round;stroke-linejoin:round;stroke-miterlimit:0;stroke-dasharray:none;stroke-opacity:1;paint-order:fill markers stroke"
     d="m 10.314986,6.9414066 c 0,17.3823134 0,34.7646264 0,52.1469404 7.230673,-4.174631 14.461348,-8.349262 21.692022,-12.523893 7.226002,4.171935 14.452005,8.343869 21.678007,12.515804 0,-17.373483 0,-34.746968 0,-52.1204516 0.02899,-2.2797242 -2.41852,-2.6166197 -4.162408,-2.4386636 -12.256908,-0.0052 -24.513816,-0.0104 -36.770724,-0.0156 -1.301834,-0.036498 -2.472843,1.134015 -2.436897,2.4358638 z"
     id="path8" />
</svg>
