<?xml version="1.0" encoding="UTF-8" standalone="no"?>
<!-- Created with Inkscape (http://www.inkscape.org/) -->

<svg
   width="32"
   height="32"
   viewBox="0 0 32 32"
   version="1.1"
   id="svg1"
   xmlns="http://www.w3.org/2000/svg"
   xmlns:svg="http://www.w3.org/2000/svg">
  <defs
     id="defs1" />
  <circle
     style="fill:none;fill-opacity:1;stroke:#ffffff;stroke-width:4.798;stroke-dasharray:none;stroke-opacity:1"
     id="path1"
     cx="16"
     cy="16"
     r="5.3169632" />
  <path
     style="fill:#ffffff;fill-opacity:1;stroke:#ffffff;stroke-width:0;stroke-dasharray:none;stroke-opacity:1"
     id="rect1"
     width="6.0144"
     height="3.7171035"
     x="12.9928"
     y="5.6428981"
     d="M 13.879282,5.6428981 H 18.04426 A 0.96293957,0.96293957 45 0 1 19.0072,6.6058377 V 9.3600016 H 12.9928 V 6.5293799 a 0.88648185,0.88648185 135 0 1 0.886482,-0.8864818 z" />
  <path
     style="fill:#ffffff;fill-opacity:1;stroke:#ffffff;stroke-width:0;stroke-dasharray:none;stroke-opacity:1"
     id="rect1-9"
     width="6.0144"
     height="3.7171035"
     x="12.9928"
     y="5.6428981"
     d="M 13.879282,5.6428981 H 18.04426 A 0.96293957,0.96293957 45 0 1 19.0072,6.6058377 V 9.3600016 H 12.9928 V 6.5293799 a 0.88648185,0.88648185 135 0 1 0.886482,-0.8864818 z"
     transform="rotate(-120,16,16)" />
  <path
     style="fill:#ffffff;fill-opacity:1;stroke:#ffffff;stroke-width:0;stroke-dasharray:none;stroke-opacity:1"
     id="rect1-6"
     width="6.0144"
     height="3.7171035"
     x="12.9928"
     y="5.6428981"
     d="M 13.879282,5.6428981 H 18.04426 A 0.96293957,0.96293957 45 0 1 19.0072,6.6058377 V 9.3600016 H 12.9928 V 6.5293799 a 0.88648185,0.88648185 135 0 1 0.886482,-0.8864818 z"
     transform="rotate(-60,16,16)" />
  <path
     style="fill:#ffffff;fill-opacity:1;stroke:#ffffff;stroke-width:0;stroke-dasharray:none;stroke-opacity:1"
     id="rect1-2"
     width="6.0144"
     height="3.7171035"
     x="12.9928"
     y="5.6428981"
     d="M 13.879282,5.6428981 H 18.04426 A 0.96293957,0.96293957 45 0 1 19.0072,6.6058377 V 9.3600016 H 12.9928 V 6.5293799 a 0.88648185,0.88648185 135 0 1 0.886482,-0.8864818 z"
     transform="rotate(120,16,16)" />
  <path
     style="fill:#ffffff;fill-opacity:1;stroke:#ffffff;stroke-width:0;stroke-dasharray:none;stroke-opacity:1"
     id="rect1-0"
     width="6.0144"
     height="3.7171035"
     x="12.9928"
     y="5.6428981"
     d="M 13.879282,5.6428981 H 18.04426 A 0.96293957,0.96293957 45 0 1 19.0072,6.6058377 V 9.3600016 H 12.9928 V 6.5293799 a 0.88648185,0.88648185 135 0 1 0.886482,-0.8864818 z"
     transform="rotate(60,16,16)" />
  <path
     style="fill:#ffffff;fill-opacity:1;stroke:#ffffff;stroke-width:0;stroke-dasharray:none;stroke-opacity:1"
     id="rect1-1"
     width="6.0144"
     height="3.7171035"
     x="12.9928"
     y="5.6428981"
     d="M 13.879282,5.6428981 H 18.04426 A 0.96293957,0.96293957 45 0 1 19.0072,6.6058377 V 9.3600016 H 12.9928 V 6.5293799 a 0.88648185,0.88648185 135 0 1 0.886482,-0.8864818 z"
     transform="rotate(180,16.0036,16)" />
</svg>
